# AST/ASF file generated using VICON BodyLanguage
# -----------------------------------------------
:version 1.10
:name VICON
:units
  mass 1.0
  length 0.45
  angle deg
:documentation
   .ast/.asf automatically generated from VICON data using
   VICON BodyBuilder and BodyLanguage model FoxedUp or BRILLIANT.MOD
:root
   order TX TY TZ RX RY RZ
   axis XYZ
   position 0 0 0  
   orientation 0 0 0 
:bonedata
  begin
     id 1 
     name lhipjoint
     direction 0.660183 -0.676772 0.325788 
     length 2.75133 
     axis 0 0 0  XYZ
  end
  begin
     id 2 
     name lfemur
     direction 0.34202 -0.939693 0  
     length 7.70317  
     axis 0 0 20  XYZ
    dof rx ry rz
    limits (-160.0 20.0)
           (-70.0 70.0)
           (-60.0 70.0)
  end
  begin
     id 3 
     name ltibia
     direction 0.342105 -0.939662 0   
     length 7.18701   
     axis 0 0 20   XYZ
    dof rx
    limits (-10.0 170.0)
  end
  begin
     id 4 
     name lfoot
     direction 0.14163 -0.389126 0.910232   
     length 2.41719   
     axis -90 7.62852e-016 20   XYZ
    dof rx rz
    limits (-45.0 90.0)
           (-70.0 20.0)
  end
  begin
     id 5 
     name ltoes
     direction 1.53533e-011 -4.21926e-011 1   
     length 1.18611   
     axis -90 7.62852e-016 20   XYZ
    dof rx
    limits (-90.0 20.0)
  end
  begin
     id 6 
     name rhipjoint
     direction -0.6658 -0.67229 0.323631   
     length 2.76968  
     axis 0 0 0  XYZ 
  end
  begin
     id 7 
     name rfemur
     direction -0.34202 -0.939693 0   
     length 7.92547   
     axis 0 0 -20   XYZ
    dof rx ry rz
    limits (-160.0 20.0)
           (-70.0 70.0)
           (-70.0 60.0)
  end
  begin
     id 8 
     name rtibia
     direction -0.342022 -0.939692 0   
     length 7.22641   
     axis 0 0 -20   XYZ
    dof rx
    limits (-10.0 170.0)
 end
 begin
     id 9 
     name rfoot
     direction -0.105675 -0.29034 0.951071   
     length 2.48149  
     axis -90 -7.62852e-016 -20   XYZ
    dof rx rz
    limits (-45.0 90.0)
           (-20.0 70.0)
  end
  begin
     id 10 
     name rtoes
     direction -1.5349e-011 -4.21859e-011 1   
     length 1.23343   
     axis -90 -7.62852e-016 -20   XYZ
    dof rx
    limits (-90.0 20.0)
  end
  begin
     id 11 
     name lowerback
     direction 0.0104173 0.993624 -0.112266   
     length 2.00527   
     axis 0 0 0   XYZ
    dof rx ry rz
    limits (-20.0 45.0)
           (-30.0 30.0)
           (-30.0 30.0)
  end
  begin
     id 12 
     name upperback
     direction 0.00733149 0.999856 -0.0152913   
     length 2.01385   
     axis 0 0 0   XYZ
    dof rx ry rz
    limits (-20.0 45.0)
           (-30.0 30.0)
           (-30.0 30.0)
  end
  begin
     id 13 
     name thorax
     direction 0.0026304 0.999318 0.036841   
     length 2.03734   
     axis 0 0 0   XYZ
    dof rx ry rz
    limits (-20.0 45.0)
           (-30.0 30.0)
           (-30.0 30.0)
  end
  begin
     id 14 
     name lowerneck
     direction 0.0293154 0.998757 0.0403082   
     length 1.65303   
     axis 0 0 0   XYZ
    dof rx ry rz
    limits (-20.0 45.0)
           (-30.0 30.0)
           (-30.0 30.0)
  end
  begin
     id 15 
     name upperneck
     direction -0.0376619 0.998184 -0.0470083   
     length 1.60926   
     axis 0 0 0   XYZ
    dof rx ry rz
    limits (-20.0 45.0)
           (-30.0 30.0)
           (-30.0 30.0)
  end
  begin
     id 16
     name head
     direction -0.0170133 0.999635 -0.0209778  
     length 1.73625  
     axis 0 0 0   XYZ
    dof rx ry rz
    limits (-20.0 45.0)
           (-30.0 30.0)
           (-30.0 30.0)
  end
  begin
     id 17 
     name lclavicle
     direction 0.919857 0.39181 -0.0186333  
     length 3.75313  
     axis 0 0 0   XYZ
    dof ry rz
    limits (-20.0 10.0)
           (0.0 20.0)
  end
  begin
     id 18 
     name lhumerus
     direction 1 -4.48988e-011 1.44029e-027   
     length 5.49313   
     axis 180 -30 -90   XYZ
    dof rx ry rz
    limits (-60.0 90.0)
           (-90.0 90.0)
           (-90.0 90.0)
  end
  begin
     id 19
     name lradius
     direction 1 -4.48924e-011 7.46281e-027   
     length 3.29037   
     axis 180 -30 -90   XYZ
    dof rx
    limits (-10.0 170.0)
  end
  begin
     id 20
     name lwrist
     direction 1 -4.48955e-011 2.19879e-026   
     length 1.64519   
     axis -1.34358e-014 90 90   XYZ
    dof ry
    limits (-180.0 0.0)
 end
  begin
     id 21 
     name lhand
     direction 1 -4.48978e-011 4.39747e-026   
     length 0.729656   
     axis -2.80598e-014 90 90   XYZ
    dof rx rz
    limits (-90.0 90.0)
           (-45.0 45.0)
  end
  begin
     id 22 
     name lfingers
     direction 1 -4.49071e-011 8.79411e-026   
     length 0.588268   
     axis -5.61193e-014 90 90   XYZ
    dof rx
    limits (0.0 90.0)
  end
  begin
     id 23
     name lthumb
     direction 0.707107 -6.34817e-011 0.707107   
     length 0.844638   
     axis -90 45 -9.86923e-015   XYZ
    dof rx rz
    limits (-45.0 45.0)
           (-45.0 45.0)
  end
  begin
     id 24 
     name rclavicle
     direction -0.919898 0.388279 0.0550233   
     length 3.7171  
     axis 0 0 0   XYZ 
    dof ry rz
    limits (-10.0 20.0)
           (-20.0 0.0)
  end
  begin
     id 25 
     name rhumerus
     direction -1 -4.48968e-011 9.98372e-028  
     length 5.23684   
     axis 180 30 90   XYZ
    dof rx ry rz
    limits (-90.0 60.0)
           (-90.0 90.0)
           (-90.0 90.0)
  end
  begin
     id 26 
     name rradius
     direction -1 -4.48956e-011 1.01023e-026   
     length 3.38251   
     axis 180 30 90   XYZ
    dof rx
    limits (-10.0 170.0)
  end
  begin
     id 27 
     name rwrist
     direction -1 -4.4892e-011 2.19886e-026   
     length 1.69126   
     axis -1.34358e-014 -90 -90   XYZ
    dof ry
    limits (-180.0 0.0)
  end
  begin
     id 28
     name rhand
     direction -1 -4.49024e-011 4.39727e-026   
     length 0.691454   
     axis -2.80598e-014 -90 -90   XYZ
    dof rx rz
    limits (-90.0 90.0)
           (-45.0 45.0)
  end
  begin
     id 29
     name rfingers
     direction -1 -4.49097e-011 8.79388e-026   
     length 0.557468   
     axis -5.61193e-014 -90 -90   XYZ
    dof rx
    limits (0.0 90.0)
  end
  begin
     id 30
     name rthumb
     direction -0.707107 -6.34938e-011 0.707107   
     length 0.800416   
     axis -90 -45 9.86923e-015   XYZ
    dof rx rz
    limits (-45.0 45.0)
           (-45.0 45.0)
  end
:hierarchy
  begin
    root lhipjoint rhipjoint lowerback
    lhipjoint lfemur
    lfemur ltibia
    ltibia lfoot
    lfoot ltoes
    rhipjoint rfemur
    rfemur rtibia
    rtibia rfoot
    rfoot rtoes
    lowerback upperback
    upperback thorax
    thorax lowerneck lclavicle rclavicle
    lowerneck upperneck
    upperneck head
    lclavicle lhumerus
    lhumerus lradius
    lradius lwrist
    lwrist lhand lthumb
    lhand lfingers
    rclavicle rhumerus
    rhumerus rradius
    rradius rwrist
    rwrist rhand rthumb
    rhand rfingers
  end

#!OML:ASF H:\BabyWalks\Project 1\Capture day 1\Session 1\baby.ASF
:FULLY-SPECIFIED
:DEGREES
123
root -35.0288 17.4039 -2.87429 -14.6788 80.476 -20.8384
lowerback 17.5918 -0.266145 -0.402296
upperback 6.88054 -0.0415789 0.361651
thorax -2.49893 0.11921 0.610198
lowerneck 4.03007 3.66117 1.77806
upperneck -11.5755 4.615 -5.52738
head -4.36926 2.5368 -2.42592
rclavicle 2.88238e-014 -7.95139e-015
rhumerus -52.9612 25.7704 -91.4478
rradius 53.0495
rwrist -10.1988
rhand -10.5494 -17.0919
rfingers 7.12502
rthumb 15.4545 -46.4941
lclavicle 2.88238e-014 -7.95139e-015
lhumerus -45.687 -2.26076 75.6508
lradius 52.9423
lwrist 2.12279
lhand 0.981821 11.2644
lfingers 7.12502
lthumb 26.5304 39.4266
rfemur 3.1876 10.6849 25.0407
rtibia 15.4467
rfoot -22.4077 -7.10787
rtoes -10.9618
lfemur -27.5982 -2.81894 -13.2011
ltibia 40.9053
lfoot -24.7858 -11.9384
ltoes 4.76475
124
root -34.9796 17.3936 -2.87368 -15.8398 80.5571 -22.1306
lowerback 17.5632 -0.233364 -0.478516
upperback 6.88024 -0.0145304 0.273586
thorax -2.48449 0.132572 0.555399
lowerneck 4.024 3.59047 1.78203
upperneck -11.5776 4.54813 -5.25016
head -4.37694 2.48908 -2.32823
rclavicle -2.74323e-014 9.93923e-015
rhumerus -53.1464 25.618 -91.5173
rradius 53.1233
rwrist -10.3915
rhand -10.4406 -17.1804
rfingers 7.12502
rthumb 15.5593 -46.5745
lclavicle -2.74323e-014 9.93923e-015
lhumerus -45.4062 -2.52739 75.3325
lradius 53.0993
lwrist 2.19182
lhand 0.962218 11.2108
lfingers 7.12502
lthumb 26.5117 39.3758
rfemur 3.53658 10.5946 25.2249
rtibia 14.884
rfoot -22.1742 -7.21404
rtoes -11.7408
lfemur -27.6963 -2.87206 -13.0605
ltibia 41.145
lfoot -25.0691 -11.8539
ltoes 4.67469
125
root -34.9291 17.3832 -2.8737 -16.8981 80.5955 -23.3324
lowerback 17.5352 -0.185792 -0.583962
upperback 6.87462 0.0264391 0.178891
thorax -2.47606 0.152338 0.507537
lowerneck 4.00174 3.51812 1.77798
upperneck -11.5818 4.48068 -4.95486
head -4.38256 2.44056 -2.22257
rclavicle -9.14409e-015 7.95139e-015
rhumerus -53.3225 25.4696 -91.5841
rradius 53.1669
rwrist -10.5321
rhand -10.3403 -17.3025
rfingers 7.12502
rthumb 15.656 -46.6891
lclavicle -9.14409e-015 7.95139e-015
lhumerus -45.1202 -2.80603 75.0157
lradius 53.2762
lwrist 2.27521
lhand 0.98009 11.1724
lfingers 7.12502
lthumb 26.5288 39.3349
rfemur 3.86947 10.5051 25.39
rtibia 14.3259
rfoot -21.9449 -7.26674
rtoes -12.5142
lfemur -27.7957 -2.88618 -12.9257
ltibia 41.3877
lfoot -25.3353 -11.7781
ltoes 4.65907
126
root -34.877 17.3737 -2.87416 -17.7847 80.6005 -24.374
lowerback 17.5036 -0.125772 -0.726228
upperback 6.86282 0.0768271 0.0727011
thorax -2.47231 0.17622 0.466662
lowerneck 3.97067 3.4478 1.76149
upperneck -11.5869 4.41812 -4.63288
head -4.38714 2.39374 -2.10573
rclavicle -4.37326e-015 -7.95139e-015
rhumerus -53.4924 25.3258 -91.6554
rradius 53.1791
rwrist -10.6264
rhand -10.2559 -17.4317
rfingers 7.12502
rthumb 15.7372 -46.8118
lclavicle -4.37326e-015 -7.95139e-015
lhumerus -44.8326 -3.09612 74.6959
lradius 53.4725
lwrist 2.36837
lhand 1.03195 11.1511
lfingers 7.12502
lthumb 26.5784 39.3061
rfemur 4.16624 10.427 25.5249
rtibia 13.8008
rfoot -21.7378 -7.27812
rtoes -13.2515
lfemur -27.8946 -2.86768 -12.8069
ltibia 41.6303
lfoot -25.5826 -11.7233
ltoes 4.71702
127
root -34.8237 17.3653 -2.87482 -18.483 80.5778 -25.2398
lowerback 17.4737 -0.0547472 -0.905732
upperback 6.84464 0.134749 -0.0461688
thorax -2.47618 0.203375 0.43211
lowerneck 3.91809 3.38301 1.73113
upperneck -11.5855 4.3654 -4.28267
head -4.3854 2.35098 -1.9766
rclavicle -1.03368e-014 7.15625e-015
rhumerus -53.6562 25.19 -91.7359
rradius 53.1558
rwrist -10.6596
rhand -10.2095 -17.5434
rfingers 7.12502
rthumb 15.7819 -46.92
lclavicle -1.03368e-014 7.15625e-015
lhumerus -44.5404 -3.39929 74.3714
lradius 53.6852
lwrist 2.4728
lhand 1.09603 11.1286
lfingers 7.12502
lthumb 26.6398 39.2743
rfemur 4.40876 10.3611 25.628
rtibia 13.3407
rfoot -21.5688 -7.23826
rtoes -13.8946
lfemur -27.9961 -2.81446 -12.7042
ltibia 41.8696
lfoot -25.8114 -11.7002
ltoes 4.82399
128
root -34.7694 17.3572 -2.87535 -19.0504 80.5406 -25.9836
lowerback 17.4488 0.0232928 -1.11862
upperback 6.81864 0.19574 -0.174393
thorax -2.49103 0.231684 0.40601
lowerneck 3.86088 3.3215 1.69623
upperneck -11.5832 4.31934 -3.9115
head -4.38257 2.31082 -1.84004
rclavicle -9.54166e-015 7.95139e-015
rhumerus -53.8231 25.0601 -91.8304
rradius 53.0865
rwrist -10.6143
rhand -10.2302 -17.5837
rfingers 7.12502
rthumb 15.762 -46.9619
lclavicle -9.54166e-015 7.95139e-015
lhumerus -44.2483 -3.72231 74.046
lradius 53.9141
lwrist 2.58259
lhand 1.15653 11.1172
lfingers 7.12502
lthumb 26.6977 39.254
rfemur 4.59595 10.3003 25.7106
rtibia 12.9711
rfoot -21.4513 -7.1722
rtoes -14.449
lfemur -28.101 -2.73818 -12.6093
ltibia 42.1041
lfoot -26.0113 -11.7202
ltoes 4.99226
129
root -34.7144 17.3489 -2.87542 -19.5066 80.497 -26.6178
lowerback 17.4372 0.104738 -1.3625
upperback 6.7879 0.255655 -0.312698
thorax -2.51783 0.259346 0.386958
lowerneck 3.79474 3.26418 1.65548
upperneck -11.5775 4.28112 -3.51946
head -4.37702 2.27394 -1.69579
rclavicle -3.4191e-014 1.51076e-014
rhumerus -53.9883 24.9372 -91.9411
rradius 52.9717
rwrist -10.5038
rhand -10.3185 -17.5421
rfingers 7.12502
rthumb 15.6769 -46.927
lclavicle -3.4191e-014 1.51076e-014
lhumerus -43.9523 -4.0644 73.7166
lradius 54.1552
lwrist 2.69868
lhand 1.20245 11.1024
lfingers 7.12502
lthumb 26.7416 39.2325
rfemur 4.72763 10.2427 25.7762
rtibia 12.7134
rfoot -21.3854 -7.08743
rtoes -14.9259
lfemur -28.203 -2.64151 -12.5228
ltibia 42.3334
lfoot -26.2089 -11.7801
ltoes 5.13751
130
root -34.6585 17.3404 -2.87497 -19.8784 80.452 -27.1698
lowerback 17.4359 0.18782 -1.63186
upperback 6.75216 0.313002 -0.459907
thorax -2.5553 0.28573 0.373301
lowerneck 3.72432 3.20866 1.61653
upperneck -11.5669 4.2473 -3.11363
head -4.36896 2.23868 -1.54762
rclavicle -4.37326e-015 -2.06736e-014
rhumerus -54.155 24.8182 -92.0681
rradius 52.8169
rwrist -10.3359
rhand -10.4757 -17.4176
rfingers 7.12502
rthumb 15.5255 -46.8143
lclavicle -4.37326e-015 -2.06736e-014
lhumerus -43.6497 -4.42852 73.3841
lradius 54.4038
lwrist 2.82125
lhand 1.22882 11.0843
lfingers 7.12502
lthumb 26.7668 39.2106
rfemur 4.80361 10.1787 25.8281
rtibia 12.574
rfoot -21.3873 -6.99095
rtoes -15.3204
lfemur -28.3056 -2.52721 -12.4428
ltibia 42.5602
lfoot -26.4073 -11.8797
ltoes 5.24641
131
root -34.6021 17.3317 -2.87396 -20.2241 80.3968 -27.697
lowerback 17.4456 0.273917 -1.91594
upperback 6.71407 0.371529 -0.611034
thorax -2.60112 0.312857 0.363409
lowerneck 3.65299 3.1541 1.57829
upperneck -11.5577 4.21636 -2.69752
head -4.36146 2.20464 -1.39675
rclavicle -1.70955e-014 2.70347e-014
rhumerus -54.3145 24.7031 -92.2069
rradius 52.6204
rwrist -10.1182
rhand -10.6999 -17.2211
rfingers 7.12502
rthumb 15.3095 -46.6345
lclavicle -1.70955e-014 2.70347e-014
lhumerus -43.3318 -4.81433 73.0513
lradius 54.6529
lwrist 2.95315
lhand 1.22886 11.0585
lfingers 7.12502
lthumb 26.7669 39.1848
rfemur 4.81358 10.1045 25.8769
rtibia 12.566
rfoot -21.4534 -6.8569
rtoes -15.5983
lfemur -28.4047 -2.39113 -12.3561
ltibia 42.7825
lfoot -26.6118 -12.0127
ltoes 5.32446
132
root -34.545 17.3227 -2.87233 -20.5726 80.3422 -28.2195
lowerback 17.4684 0.359511 -2.21364
upperback 6.67854 0.427192 -0.763273
thorax -2.65105 0.338853 0.360352
lowerneck 3.57258 3.10023 1.53765
upperneck -11.5407 4.18761 -2.2707
head -4.34966 2.17154 -1.242
rclavicle -2.82274e-014 2.38542e-015
rhumerus -54.4659 24.5923 -92.3531
rradius 52.393
rwrist -9.86638
rhand -10.9794 -16.9655
rfingers 7.12502
rthumb 15.0403 -46.3992
lclavicle -2.82274e-014 2.38542e-015
lhumerus -42.9943 -5.22149 72.7211
lradius 54.895
lwrist 3.09115
lhand 1.19196 11.0261
lfingers 7.12502
lthumb 26.7316 39.1578
rfemur 4.76956 10.0183 25.9272
rtibia 12.7013
rfoot -21.5676 -6.69092
rtoes -15.7434
lfemur -28.4893 -2.23842 -12.2665
ltibia 42.9987
lfoot -26.8083 -12.1956
ltoes 5.46181
133
root -34.4876 17.3142 -2.87067 -20.8936 80.2552 -28.7198
lowerback 17.4958 0.454196 -2.51113
upperback 6.64149 0.494284 -0.915742
thorax -2.70548 0.370755 0.354462
lowerneck 3.48282 3.04659 1.49113
upperneck -11.5176 4.16004 -1.83386
head -4.33424 2.13918 -1.08304
rclavicle 2.14687e-014 -1.51076e-014
rhumerus -54.6025 24.4821 -92.5001
rradius 52.1483
rwrist -9.60697
rhand -11.2792 -16.7015
rfingers 7.12502
rthumb 14.7515 -46.1566
lclavicle 2.14687e-014 -1.51076e-014
lhumerus -42.6283 -5.64553 72.3935
lradius 55.1238
lwrist 3.22792
lhand 1.13122 10.987
lfingers 7.12502
lthumb 26.6734 39.1275
rfemur 4.6373 9.92043 25.9753
rtibia 12.9936
rfoot -21.725 -6.4424
rtoes -15.7721
lfemur -28.5655 -2.0511 -12.1652
ltibia 43.2051
lfoot -27.0276 -12.3831
ltoes 5.52951
134
root -34.4299 17.3072 -2.8693 -21.1896 80.1315 -29.2022
lowerback 17.5186 0.558876 -2.80284
upperback 6.60759 0.575552 -1.06498
thorax -2.75463 0.409861 0.345775
lowerneck 3.37527 2.99207 1.4383
upperneck -11.4873 4.13129 -1.39371
head -4.31307 2.10682 -0.921747
rclavicle 1.66979e-014 2.14687e-014
rhumerus -54.7109 24.3721 -92.6359
rradius 51.892
rwrist -9.34911
rhand -11.5759 -16.4586
rfingers 7.12502
rthumb 14.4657 -45.9344
lclavicle 1.66979e-014 2.14687e-014
lhumerus -42.222 -6.08229 72.0732
lradius 55.3313
lwrist 3.3673
lhand 1.04897 10.9395
lfingers 7.12502
lthumb 26.5947 39.092
rfemur 4.4089 9.8137 26.0213
rtibia 13.4479
rfoot -21.9241 -6.11016
rtoes -15.7119
lfemur -28.6301 -1.83488 -12.0507
ltibia 43.3964
lfoot -27.2347 -12.5797
ltoes 5.68828
